<?xml version="1.0" encoding="utf-8"?>
<!-- Generator: Adobe Illustrator 23.0.1, SVG Export Plug-In . SVG Version: 6.00 Build 0)  -->
<svg version="1.1" xmlns="http://www.w3.org/2000/svg" xmlns:xlink="http://www.w3.org/1999/xlink" x="0px" y="0px"
	 viewBox="0 0 200 50" style="enable-background:new 0 0 200 50;" xml:space="preserve">
<style type="text/css">
	.st0{fill:#5439AC;}
	.st1{fill:#F4E3FF;}
</style>
<g id="Layer_2">
	<path class="st0" d="M185.18,47.26H18.72c-6.6,0-12-5.4-12-12V15.6c0-6.6,5.4-12,12-12h166.47c6.6,0,12,5.4,12,12v19.66
		C197.18,41.86,191.78,47.26,185.18,47.26z"/>
</g>
<g id="Layer_1">
	<g>
		<path class="st1" d="M35.87,30.21c-0.49-0.97-1.13-1.86-1.95-2.65c-0.81-0.8-1.77-1.53-2.85-2.19s-2.23-1.28-3.44-1.88
			c-1.17-0.58-2.21-1.11-3.11-1.6c-0.9-0.49-1.67-0.98-2.3-1.51c-0.62-0.51-1.1-1.09-1.43-1.71c-0.32-0.63-0.48-1.37-0.49-2.24
			c0-0.92,0.22-1.71,0.64-2.36c0.42-0.64,0.97-1.16,1.64-1.58c0.68-0.41,1.44-0.7,2.31-0.88c0.86-0.18,1.72-0.27,2.59-0.27
			c3.12,0,5.68,0.69,7.67,2.07V8.96c-1.53-0.8-3.95-1.2-7.27-1.19c-1.46,0-2.9,0.18-4.3,0.54c-1.41,0.36-2.66,0.91-3.75,1.65
			c-1.1,0.74-1.99,1.68-2.66,2.82s-1.01,2.47-1.01,4.02c0.01,1.25,0.23,2.35,0.65,3.28c0.43,0.94,1.03,1.77,1.79,2.51
			c0.75,0.74,1.63,1.41,2.66,2.02c1.02,0.61,2.11,1.22,3.29,1.81c1.11,0.56,2.16,1.1,3.12,1.61c0.97,0.51,1.8,1.05,2.51,1.6
			c0.7,0.56,1.25,1.17,1.66,1.85c0.4,0.68,0.6,1.46,0.6,2.37c0,1.7-0.6,3-1.8,3.9c-1.2,0.9-3.01,1.35-5.45,1.36
			c-0.7,0-1.47-0.07-2.3-0.22c-0.83-0.14-1.66-0.33-2.48-0.6c-0.83-0.26-1.62-0.58-2.36-0.95c-0.75-0.38-1.39-0.8-1.92-1.27v2.98
			c0,1.11,0.69,2.13,1.73,2.48c0.01,0.01,0.02,0.01,0.03,0.01c0.32,0.11,0.64,0.21,0.98,0.29c0.42,0.13,0.88,0.23,1.34,0.32
			c0.81,0.16,1.62,0.29,2.4,0.37c0.79,0.09,1.44,0.14,1.98,0.14c1.6-0.01,3.12-0.17,4.57-0.49c1.44-0.32,2.72-0.85,3.83-1.57
			c0.69-0.46,1.31-1,1.81-1.63c0.31-0.36,0.58-0.76,0.81-1.18c0.66-1.16,0.98-2.56,0.97-4.22C36.58,32.3,36.34,31.18,35.87,30.21z"
			/>
		<path class="st1" d="M37.08,29.61c-0.54-1.11-1.29-2.12-2.21-3.02c-0.88-0.88-1.92-1.67-3.1-2.38c-1.11-0.68-2.3-1.33-3.54-1.94
			c-1.17-0.57-2.2-1.1-3.08-1.57c-0.82-0.44-1.53-0.9-2.08-1.36c-0.48-0.4-0.84-0.83-1.07-1.29c-0.23-0.42-0.33-0.97-0.33-1.62
			c-0.01-0.66,0.13-1.19,0.41-1.61c0.32-0.48,0.71-0.86,1.22-1.16c0.54-0.33,1.17-0.57,1.89-0.72c0.76-0.16,1.54-0.24,2.31-0.24
			c2.82,0,5.14,0.61,6.9,1.82l2.12,1.47V8.14l-0.73-0.38c-1.73-0.91-4.32-1.35-7.91-1.34c-1.56,0-3.12,0.2-4.63,0.59
			c-1.54,0.4-2.95,1.01-4.17,1.83c-1.26,0.85-2.29,1.95-3.07,3.25c-0.79,1.34-1.2,2.93-1.2,4.71c0.01,1.44,0.27,2.74,0.78,3.84
			c0.51,1.08,1.2,2.06,2.07,2.91c0.82,0.81,1.8,1.55,2.91,2.22c1.06,0.62,2.19,1.25,3.38,1.86c1.11,0.56,2.14,1.09,3.1,1.6
			c0.88,0.47,1.66,0.96,2.3,1.46c0.57,0.45,1.02,0.95,1.34,1.48c0.27,0.46,0.41,1.01,0.41,1.68c0,1.28-0.4,2.17-1.25,2.82
			c-0.96,0.72-2.52,1.08-4.64,1.09c-0.62,0-1.33-0.06-2.08-0.2c-0.77-0.13-1.54-0.32-2.31-0.55c-0.75-0.23-1.47-0.53-2.15-0.87
			c-0.64-0.32-1.19-0.69-1.63-1.08l-2.25-1.98v5.97c0,1.37,0.68,2.61,1.75,3.33c0.28,0.18,0.59,0.33,0.91,0.44l0.02,0.01
			c0.78,0.25,1.62,0.47,2.48,0.65c0.86,0.17,1.71,0.31,2.53,0.4c0.33,0.04,0.65,0.06,0.94,0.08c0.44,0.04,0.83,0.05,1.18,0.05
			c0.48,0,0.95-0.01,1.41-0.05c1.19-0.06,2.36-0.23,3.46-0.47c1.59-0.35,3.03-0.95,4.27-1.76c1.21-0.79,2.2-1.81,2.93-3.05
			c0.05-0.07,0.09-0.14,0.14-0.23c0.77-1.36,1.16-3.01,1.15-4.89C37.93,32.09,37.64,30.77,37.08,29.61z M32.42,39.34
			c-0.06,0.04-0.12,0.08-0.18,0.12c-0.97,0.63-2.1,1.1-3.38,1.38c-1.34,0.3-2.77,0.45-4.27,0.45c-0.48,0.01-1.1-0.04-1.83-0.12
			c-0.14-0.02-0.29-0.04-0.43-0.05c-0.6-0.07-1.23-0.17-1.85-0.3c-0.76-0.15-1.48-0.34-2.13-0.56l-0.05-0.02
			c-0.48-0.15-0.81-0.65-0.81-1.21v-0.47c0.79,0.4,1.64,0.74,2.52,1.01c0.88,0.28,1.77,0.5,2.66,0.64c0.9,0.15,1.75,0.23,2.54,0.23
			c0.27,0,0.54-0.01,0.79-0.02c1.37-0.06,2.54-0.26,3.55-0.61c0,0,0.01-0.01,0.02-0.01c0.72-0.25,1.35-0.59,1.9-0.99
			c1.55-1.16,2.35-2.84,2.34-4.98c0-1.16-0.26-2.18-0.79-3.07c-0.49-0.81-1.16-1.56-1.99-2.21c-0.76-0.6-1.68-1.19-2.71-1.74
			c-0.97-0.51-2.02-1.05-3.14-1.62c-1.14-0.58-2.22-1.17-3.21-1.76c-0.93-0.56-1.74-1.17-2.41-1.83c-0.64-0.62-1.14-1.33-1.5-2.11
			c-0.35-0.75-0.52-1.66-0.53-2.71c0-1.29,0.28-2.41,0.82-3.33c0.57-0.96,1.33-1.76,2.25-2.38c0.97-0.65,2.09-1.14,3.34-1.46
			c1.29-0.33,2.62-0.5,3.96-0.5c2.58-0.01,4.57,0.23,5.92,0.72v1.29c-1.81-0.76-3.93-1.15-6.33-1.15c-0.95,0-1.91,0.1-2.86,0.31
			c-1.01,0.21-1.93,0.56-2.73,1.05c-0.84,0.51-1.54,1.18-2.08,1.99c-0.57,0.87-0.86,1.9-0.85,3.1c0,1.07,0.21,2.04,0.63,2.85
			c0.41,0.79,1,1.52,1.77,2.15c0.69,0.57,1.53,1.13,2.51,1.65c0.91,0.49,1.98,1.03,3.17,1.62c1.17,0.58,2.29,1.19,3.33,1.83
			c0.99,0.6,1.87,1.27,2.61,1.99c0.7,0.69,1.27,1.46,1.68,2.29c0.39,0.78,0.58,1.7,0.58,2.74c0.01,1.42-0.26,2.62-0.79,3.56
			C33.92,38.02,33.26,38.75,32.42,39.34z"/>
	</g>
	<g>
		<path class="st1" d="M68.67,8.3h-3.95l0.01,14.81l-17.46,0.01L47.25,8.31L43.3,8.32l0.03,29.36v0.44c0,1.09,0.44,2.08,1.16,2.8
			c0.71,0.71,1.71,1.16,2.8,1.16v-4.95l-0.01-10.44l17.46-0.02l0.01,8.13l0.01,7.26c2.18,0,3.95-1.77,3.95-3.95V34.3L68.67,8.3z"/>
		<path class="st1" d="M70.02,6.94l-6.66,0.01l0.01,14.81l-14.75,0.01L48.6,6.95l-6.66,0.01l0.03,30.91v0.24
			c0,2.92,2.38,5.31,5.31,5.31h1.35v-6.5l-0.01-8.9l14.75-0.01l0.01,6.94l0.01,8.45h1.35c2.92,0,5.31-2.38,5.31-5.31v-3.97
			L70.02,6.94z M67.34,38.1c0,0.94-0.51,1.76-1.25,2.22l-0.01-5.69l-0.01-9.32L45.9,25.33l0.01,11.98v3.03
			c-0.75-0.46-1.25-1.28-1.25-2.22v-0.63L44.65,9.67h1.25l0.02,14.8l20.17-0.02l-0.01-14.8h1.25l0.03,24.82v3.63H67.34z"/>
	</g>
	<g>
		<path class="st1" d="M102.09,37.93l-2.82-7.29L90.65,8.28h-4.1l-9.56,25l-1.79,4.66c-0.14,0.36-0.2,0.73-0.2,1.08
			c0,1.61,1.29,3.02,3.02,3.02l3.3-9.29l0.06-0.18h1.45l12.85-0.01l3.59,9.46C101.41,42.02,102.85,39.9,102.09,37.93z M87.95,14.63
			c0.2-0.55,0.38-1.3,0.53-2.26h0.1c0.17,1.03,0.34,1.79,0.51,2.26l5.32,14.38l-11.7,0.01L87.95,14.63z"/>
		<path class="st1" d="M90.37,14.16c-0.1-0.26-0.25-0.83-0.45-2.01l-0.19-1.13h-2.39l-0.19,1.14c-0.14,0.87-0.3,1.54-0.47,2.01
			l-5.9,16.2l15.58-0.01L90.37,14.16z M84.65,27.66L88.53,17l3.93,10.66H84.65z M90.37,14.16c-0.1-0.26-0.25-0.83-0.45-2.01
			l-0.19-1.13h-2.39l-0.19,1.14c-0.14,0.87-0.3,1.54-0.47,2.01l-5.9,16.2l15.58-0.01L90.37,14.16z M84.65,27.66L88.53,17l3.93,10.66
			H84.65z M103.36,37.45l-2.7-7L91.58,6.93h-5.96L75.47,33.46l-1.53,3.99c-0.51,1.35-0.33,2.86,0.48,4.05
			c0.82,1.19,2.17,1.9,3.62,1.9h0.95l3.37-9.47l12.42-0.01l3.58,9.46h0.94c1.43,0,2.78-0.7,3.59-1.9
			C103.7,40.3,103.87,38.79,103.36,37.45z M100.66,39.95c-0.14,0.2-0.32,0.36-0.51,0.49l-3.5-9.23h-2.08l-14.12,0.01l-0.6,1.71
			l-2.67,7.53c-0.2-0.13-0.37-0.29-0.51-0.49c-0.32-0.46-0.38-1.03-0.18-1.54l2.04-5.33L87.5,9.65h2.24l8.18,21.18l2.93,7.61
			C101.03,38.94,100.97,39.49,100.66,39.95z M89.92,12.15l-0.19-1.13h-2.39l-0.19,1.14c-0.14,0.87-0.3,1.54-0.47,2.01l-5.9,16.2
			l15.58-0.01l-5.98-16.2C90.27,13.9,90.12,13.33,89.92,12.15z M84.65,27.66L88.53,17l3.93,10.66H84.65z M90.37,14.16
			c-0.1-0.26-0.25-0.83-0.45-2.01l-0.19-1.13h-2.39l-0.19,1.14c-0.14,0.87-0.3,1.54-0.47,2.01l-5.9,16.2l15.58-0.01L90.37,14.16z
			 M84.65,27.66L88.53,17l3.93,10.66H84.65z M90.37,14.16c-0.1-0.26-0.25-0.83-0.45-2.01l-0.19-1.13h-2.39l-0.19,1.14
			c-0.14,0.87-0.3,1.54-0.47,2.01l-5.9,16.2l15.58-0.01L90.37,14.16z M84.65,27.66L88.53,17l3.93,10.66H84.65z"/>
	</g>
	<g>
		<path class="st1" d="M130.34,38.01l-3.84-6.15c-0.45-0.74-0.87-1.39-1.24-1.94c-0.37-0.56-0.74-1.06-1.12-1.5
			c-0.38-0.44-0.78-0.82-1.19-1.14c-0.42-0.32-0.9-0.61-1.47-0.86v-0.1c1.15-0.3,2.17-0.72,3.1-1.26c0.61-0.36,1.16-0.78,1.66-1.25
			c0.24-0.23,0.48-0.46,0.69-0.72c0.65-0.77,1.15-1.64,1.5-2.63c0.35-0.97,0.53-2.06,0.53-3.23c-0.01-1.51-0.26-2.82-0.79-3.94
			c-0.51-1.12-1.24-2.06-2.16-2.82c-0.92-0.75-2-1.31-3.25-1.68c-1.25-0.37-2.61-0.55-4.08-0.55L108.6,8.25L108.63,29l0.01,9.06
			c0,1.09,0.44,2.08,1.16,2.8c0.71,0.71,1.71,1.16,2.8,1.16l-0.01-13.93v-0.42h3.25c0.74,0,1.4,0.09,1.99,0.26
			c0.59,0.18,1.14,0.47,1.64,0.87c0.51,0.39,1.01,0.89,1.5,1.52c0.49,0.61,0.99,1.36,1.51,2.25l5.66,9.46
			C130.18,42,131.42,39.75,130.34,38.01z M112.57,11.84h5.41c2.21-0.01,3.9,0.5,5.07,1.51c1.17,1.02,1.75,2.43,1.76,4.23
			c0,1-0.17,1.9-0.52,2.72c-0.34,0.8-0.82,1.49-1.43,2.05s-1.34,0.98-2.18,1.28c-0.84,0.3-1.75,0.45-2.73,0.45h-5.37L112.57,11.84z"
			/>
		<path class="st1" d="M123.94,12.32c-1.42-1.23-3.42-1.85-5.96-1.84h-6.77l0.01,14.95l6.72-0.01c1.14,0,2.21-0.18,3.19-0.52
			c1-0.36,1.89-0.88,2.63-1.56c0.76-0.69,1.35-1.53,1.77-2.52c0.42-0.97,0.63-2.07,0.63-3.26C126.16,15.36,125.41,13.6,123.94,12.32
			z M113.93,22.72l-0.01-9.53h4.06c1.87,0,3.28,0.4,4.19,1.18c0.87,0.75,1.28,1.8,1.29,3.2c0,0.81-0.14,1.55-0.42,2.18
			c-0.26,0.63-0.62,1.15-1.1,1.58c-0.47,0.43-1.05,0.78-1.71,1.01c-0.69,0.24-1.46,0.37-2.29,0.37L113.93,22.72L113.93,22.72z
			 M123.94,12.32c-1.42-1.23-3.42-1.85-5.96-1.84h-6.77l0.01,14.95l6.72-0.01c1.14,0,2.21-0.18,3.19-0.52
			c1-0.36,1.89-0.88,2.63-1.56c0.76-0.69,1.35-1.53,1.77-2.52c0.42-0.97,0.63-2.07,0.63-3.26C126.16,15.36,125.41,13.6,123.94,12.32
			z M113.93,22.72l-0.01-9.53h4.06c1.87,0,3.28,0.4,4.19,1.18c0.87,0.75,1.28,1.8,1.29,3.2c0,0.81-0.14,1.55-0.42,2.18
			c-0.26,0.63-0.62,1.15-1.1,1.58c-0.47,0.43-1.05,0.78-1.71,1.01c-0.69,0.24-1.46,0.37-2.29,0.37L113.93,22.72L113.93,22.72z
			 M131.49,37.29l-3.84-6.15c-0.47-0.75-0.88-1.41-1.26-1.98c-0.4-0.6-0.81-1.15-1.22-1.63c-0.26-0.3-0.52-0.58-0.8-0.83
			c0.31-0.14,0.6-0.31,0.89-0.48c1.05-0.61,1.96-1.37,2.7-2.26c0.29-0.34,0.56-0.71,0.79-1.1c0.39-0.6,0.7-1.25,0.95-1.94
			c0.41-1.12,0.61-2.36,0.61-3.69c-0.01-1.7-0.31-3.21-0.91-4.51c-0.6-1.31-1.45-2.41-2.53-3.29c-1.06-0.86-2.3-1.52-3.72-1.93
			c-1.37-0.4-2.87-0.6-4.47-0.6l-11.43,0.01l0.02,22.38l0.01,8.77c0,2.93,2.38,5.31,5.32,5.31h1.35l-0.02-14.36h1.9
			c0.6,0,1.14,0.06,1.6,0.21c0.43,0.14,0.83,0.34,1.22,0.63c0.42,0.32,0.84,0.76,1.25,1.29c0.45,0.57,0.92,1.27,1.41,2.1l6.06,10.12
			h0.77c1.46,0,2.76-0.77,3.47-2.05C132.31,40.03,132.26,38.53,131.49,37.29z M129.23,40c-0.06,0.12-0.21,0.32-0.44,0.47l-5.15-8.62
			c-0.54-0.92-1.08-1.72-1.61-2.39c-0.55-0.7-1.14-1.29-1.73-1.75c-0.64-0.5-1.34-0.86-2.08-1.08c-0.06-0.02-0.13-0.04-0.2-0.05
			c-0.66-0.18-1.4-0.27-2.18-0.27h-4.6v2.1l0.01,11.88c-0.75-0.46-1.25-1.28-1.25-2.22l-0.01-9.37l-0.02-19.08l8.73-0.01
			c1.34,0,2.58,0.16,3.7,0.5c1.06,0.32,2,0.79,2.77,1.43c0.77,0.63,1.35,1.39,1.79,2.34c0.43,0.94,0.66,2.08,0.66,3.38
			c0,1.01-0.15,1.95-0.45,2.78c-0.3,0.82-0.72,1.56-1.26,2.2c-0.55,0.65-1.23,1.22-2,1.68c-0.81,0.48-1.73,0.86-2.75,1.12
			l-1.01,0.26v2.02l0.8,0.36c0.47,0.2,0.87,0.43,1.19,0.69c0.34,0.26,0.68,0.59,0.99,0.96c0.34,0.39,0.69,0.85,1.02,1.36
			c0.36,0.54,0.77,1.17,1.22,1.9l3.84,6.15C129.55,39.29,129.34,39.8,129.23,40z M123.77,23.34c0.76-0.69,1.35-1.53,1.77-2.52
			c0.42-0.97,0.63-2.07,0.63-3.26c-0.01-2.2-0.76-3.97-2.23-5.24c-1.42-1.23-3.42-1.85-5.96-1.84h-6.77l0.01,14.95l6.72-0.01
			c1.14,0,2.21-0.18,3.19-0.52C122.15,24.54,123.03,24.02,123.77,23.34z M113.93,22.72l-0.01-9.53h4.06c1.87,0,3.28,0.4,4.19,1.18
			c0.87,0.75,1.28,1.8,1.29,3.2c0,0.81-0.14,1.55-0.42,2.18c-0.26,0.63-0.62,1.15-1.1,1.58c-0.47,0.43-1.05,0.78-1.71,1.01
			c-0.69,0.24-1.46,0.37-2.29,0.37L113.93,22.72L113.93,22.72z M123.94,12.32c-1.42-1.23-3.42-1.85-5.96-1.84h-6.77l0.01,14.95
			l6.72-0.01c1.14,0,2.21-0.18,3.19-0.52c1-0.36,1.89-0.88,2.63-1.56c0.76-0.69,1.35-1.53,1.77-2.52c0.42-0.97,0.63-2.07,0.63-3.26
			C126.16,15.36,125.41,13.6,123.94,12.32z M113.93,22.72l-0.01-9.53h4.06c1.87,0,3.28,0.4,4.19,1.18c0.87,0.75,1.28,1.8,1.29,3.2
			c0,0.81-0.14,1.55-0.42,2.18c-0.26,0.63-0.62,1.15-1.1,1.58c-0.47,0.43-1.05,0.78-1.71,1.01c-0.69,0.24-1.46,0.37-2.29,0.37
			L113.93,22.72L113.93,22.72z M123.94,12.32c-1.42-1.23-3.42-1.85-5.96-1.84h-6.77l0.01,14.95l6.72-0.01
			c1.14,0,2.21-0.18,3.19-0.52c1-0.36,1.89-0.88,2.63-1.56c0.76-0.69,1.35-1.53,1.77-2.52c0.42-0.97,0.63-2.07,0.63-3.26
			C126.16,15.36,125.41,13.6,123.94,12.32z M113.93,22.72l-0.01-9.53h4.06c1.87,0,3.28,0.4,4.19,1.18c0.87,0.75,1.28,1.8,1.29,3.2
			c0,0.81-0.14,1.55-0.42,2.18c-0.26,0.63-0.62,1.15-1.1,1.58c-0.47,0.43-1.05,0.78-1.71,1.01c-0.69,0.24-1.46,0.37-2.29,0.37
			L113.93,22.72L113.93,22.72z"/>
	</g>
	<g>
		<path class="st1" d="M171.86,8.21h-2.22l-2.73,0.01L166.6,8.9l-10.24,22.78c-0.41,0.91-0.95,2.29-1.62,4.14h-0.14
			c-0.23-0.89-0.76-2.25-1.56-4.04L146,15.79l-3.33-7.55h-5.22l0.01,11.12l0.02,21.8c0,0.46,0.38,0.84,0.85,0.84h2.97l-0.02-22.6
			c0-0.58,0-1.13-0.01-1.64c-0.02-2.23-0.08-3.88-0.18-4.97h0.09c0.34,1.55,0.69,2.7,1.01,3.46l0.42,0.96l10.72,23.91
			c0.23,0.53,0.77,0.88,1.35,0.88c0.59,0,1.12-0.34,1.36-0.88l11.12-25.06c0.3-0.66,0.63-1.75,1.01-3.28h0.09
			c-0.22,2.59-0.32,4.78-0.32,6.57l0.02,22.64h2.97c0.53,0,0.97-0.43,0.97-0.97L171.86,8.21z"/>
		<path class="st1" d="M173.21,7.52V6.85l-7.17,0.01l-1.1,2.45l-9.81,21.79c-0.14,0.31-0.28,0.65-0.44,1.04
			c-0.13-0.3-0.26-0.6-0.4-0.93l-7.03-15.94l-3.71-8.4l-7.46,0.01l0.01,13.03l0.02,21.23c0,1.21,0.99,2.19,2.2,2.19l4.32-0.01
			l-0.02-22.81l9.47,21.13c0.45,1.02,1.47,1.68,2.59,1.68s2.14-0.66,2.6-1.69l9.3-20.98l0.02,22.66h4.33c1.27,0,2.31-1.04,2.31-2.32
			L173.21,7.52z M169.31,40.61l-0.02-21.29c0-1.74,0.11-3.91,0.32-6.45l0.12-1.47h-2.63l-0.25,1.03c-0.44,1.79-0.75,2.64-0.93,3.05
			L154.8,40.55c-0.05,0.09-0.21,0.09-0.25,0l-10.69-23.88l-0.43-0.97c-0.3-0.68-0.61-1.75-0.94-3.21l-0.23-1.06l-2.66,0.01
			l0.14,1.48c0.11,1.14,0.17,2.95,0.18,5.41c0.01,0.34,0.01,0.7,0.01,1.07l0.02,21.24h-1.11l-0.01-21.86l-0.01-9.2h2.99l2.96,6.71
			l7.06,16.02c0.77,1.72,1.27,3.01,1.49,3.84l0.26,1.01h2.14l0.32-0.89c0.67-1.81,1.2-3.18,1.59-4.05l10.19-22.65h2.72l0.03,31.04
			H169.31z"/>
	</g>
	<g>
		<path class="st1" d="M184.68,8.2l-3.95,0.01l0.03,31.77c0,1.09,0.88,1.98,1.98,1.98c1.09,0,1.98-0.88,1.98-1.98L184.68,8.2z"/>
		<path class="st1" d="M186.04,6.85l-6.66,0.01l0.03,33.13c0,1.84,1.5,3.33,3.33,3.33c1.84,0,3.33-1.5,3.33-3.33L186.04,6.85z
			 M182.73,40.6c-0.34,0-0.62-0.28-0.62-0.62l-0.03-30.42l1.25-0.01l0.02,30.43C183.36,40.32,183.08,40.6,182.73,40.6z"/>
	</g>
	<path class="st1" d="M23.4,43.95h2.59c1.19-0.06,2.36-0.23,3.46-0.47c1.59-0.35,3.03-0.95,4.27-1.76c1.21-0.79,2.2-1.81,2.93-3.05
		c-0.64,0.1-1.25,0.19-1.86,0.29c-0.82,0.13-1.62,0.25-2.37,0.38c-1,0.16-1.96,0.32-2.86,0.47c-0.01,0-0.02,0.01-0.02,0.01
		c-1.27,0.21-2.45,0.42-3.55,0.61c-1.36,0.24-2.58,0.47-3.67,0.69c-1.31,0.25-2.45,0.49-3.45,0.7c-0.89,0.2-1.67,0.38-2.35,0.55
		L23.4,43.95z"/>
	<path class="st1" d="M47.27,37.11c0.44-0.06,0.89-0.13,1.35-0.19v6.5h-1.35c-2.92,0-5.31-2.38-5.31-5.31v-0.24
		c0.44-0.06,0.89-0.13,1.35-0.2c0.44-0.05,0.89-0.13,1.35-0.19c0.41-0.05,0.82-0.12,1.25-0.18C46.36,37.24,46.81,37.18,47.27,37.11z
		"/>
	<path class="st1" d="M68.7,34.29c0.45-0.05,0.89-0.11,1.35-0.16v3.97c0,2.92-2.38,5.31-5.31,5.31h-1.35l-0.01-8.45
		c0.44-0.05,0.89-0.11,1.35-0.17c0.44-0.05,0.89-0.11,1.35-0.16c0.42-0.05,0.83-0.11,1.25-0.15C67.79,34.41,68.24,34.35,68.7,34.29z
		"/>
	<path class="st1" d="M103.36,37.45c0.51,1.34,0.34,2.85-0.47,4.03c-0.81,1.19-2.16,1.9-3.59,1.9h-0.94l-3.58-9.46l-12.42,0.01
		l-3.37,9.47h-0.95c-1.44,0-2.8-0.7-3.62-1.9c-0.81-1.19-0.99-2.7-0.48-4.05l1.53-3.99c0.51-0.06,1.01-0.13,1.53-0.18
		c0.51-0.06,1-0.13,1.52-0.19c0.44-0.05,0.88-0.11,1.33-0.16c0.5-0.05,0.99-0.12,1.5-0.17c0.5-0.06,1-0.13,1.52-0.18
		c3.71-0.44,7.61-0.89,11.71-1.36c0.62-0.07,1.25-0.14,1.88-0.22c0.49-0.05,0.97-0.12,1.45-0.18c0.47-0.05,0.93-0.11,1.38-0.17
		c0.47-0.06,0.93-0.13,1.38-0.2L103.36,37.45z"/>
	<path class="st1" d="M131.49,37.29c0.78,1.24,0.82,2.73,0.11,4.02c-0.7,1.28-2,2.05-3.47,2.05h-0.77l-6.06-10.12
		c-0.49-0.83-0.96-1.53-1.41-2.1c-0.42-0.53-0.84-0.97-1.25-1.29c-0.39-0.29-0.79-0.5-1.22-0.63c-0.46-0.14-0.99-0.21-1.6-0.21h-1.9
		l0.02,14.36h-1.35c-2.93,0-5.32-2.37-5.32-5.31l-0.01-8.77c0.46-0.1,0.91-0.19,1.35-0.29c0.46-0.1,0.91-0.2,1.35-0.31
		c0.42-0.09,0.83-0.19,1.25-0.29c0.45-0.1,0.9-0.22,1.35-0.32c0.54-0.14,1.08-0.28,1.62-0.42c1.29-0.34,2.56-0.7,3.81-1.08
		c0.71-0.21,1.42-0.42,2.11-0.65c2.09-0.67,4.12-1.37,6.11-2.1c0.85-0.31,1.69-0.62,2.52-0.95c-0.23,0.39-0.51,0.76-0.79,1.1
		c-0.74,0.88-1.65,1.64-2.7,2.26c-0.29,0.17-0.59,0.33-0.89,0.48c0.28,0.25,0.54,0.53,0.8,0.83c0.41,0.49,0.82,1.03,1.22,1.63
		c0.38,0.57,0.79,1.23,1.26,1.98L131.49,37.29z"/>
	<path class="st1" d="M173.24,41c0,1.28-1.04,2.32-2.31,2.32h-4.33l-0.02-22.66l-9.3,20.98c-0.46,1.03-1.48,1.69-2.6,1.69
		s-2.14-0.66-2.59-1.68l-9.47-21.13l0.02,22.81l-4.32,0.01c-1.21,0-2.2-0.98-2.2-2.19l-0.02-21.23c0.45-0.19,0.9-0.38,1.35-0.57
		c0.45-0.19,0.91-0.38,1.36-0.57c0.36-0.15,0.73-0.31,1.09-0.46c0.45-0.19,0.9-0.38,1.35-0.57c0.44-0.19,0.89-0.38,1.34-0.56
		c0.42-0.18,0.83-0.35,1.25-0.52c0.3-0.13,0.6-0.24,0.89-0.37c0.42-0.17,0.83-0.34,1.25-0.51s0.84-0.34,1.26-0.51l7.03,15.94
		c0.14,0.32,0.27,0.63,0.4,0.93c0.16-0.39,0.31-0.73,0.44-1.04l9.81-21.79c0.55-0.15,1.11-0.29,1.67-0.42
		c0.99-0.24,2-0.47,3.03-0.69c1.16-0.24,2.36-0.48,3.57-0.69L173.24,41z"/>
	<path class="st1" d="M186.06,39.98c0,1.83-1.49,3.33-3.33,3.33c-1.83,0-3.33-1.49-3.33-3.33l-0.03-33.13l6.66-0.01L186.06,39.98z"
		/>
</g>
</svg>
